<svg width="325" height="1081" viewBox="0 0 325 1081" fill="none" xmlns="http://www.w3.org/2000/svg">
<path fill-rule="evenodd" clip-rule="evenodd" d="M97.391 1080.21L32.7035 1012.71L259.391 945.209L291.453 877.709L226.766 810.209L324.078 742.709L226.766 675.209L226.766 607.709L32.7035 540.209L32.7035 472.709L194.703 405.209L226.766 337.709L162.078 270.209L129.453 202.709L194.703 135.209L0.0784912 67.7095L259.391 0.209473H324.078V67.7095V135.209V202.709L324.078 270.209V337.709V405.209V472.709V540.209V607.709V675.209V742.709L324.078 810.209V877.709V945.209V1012.71V1080.21H97.391Z" fill="url(#paint0_linear_106_607)"/>
<path fill-rule="evenodd" clip-rule="evenodd" d="M97.391 1080.21L32.7035 1012.71L259.391 945.209L291.453 877.709L226.766 810.209L324.078 742.709L226.766 675.209L226.766 607.709L32.7035 540.209L32.7035 472.709L194.703 405.209L226.766 337.709L162.078 270.209L129.453 202.709L194.703 135.209L0.0784912 67.7095L259.391 0.209473H324.078V67.7095V135.209V202.709L324.078 270.209V337.709V405.209V472.709V540.209V607.709V675.209V742.709L324.078 810.209V877.709V945.209V1012.71V1080.21H97.391Z" fill="url(#paint1_linear_106_607)"/>
<path fill-rule="evenodd" clip-rule="evenodd" d="M97.391 1080.21L32.7035 1012.71L259.391 945.209L291.453 877.709L226.766 810.209L324.078 742.709L226.766 675.209L226.766 607.709L32.7035 540.209L32.7035 472.709L194.703 405.209L226.766 337.709L162.078 270.209L129.453 202.709L194.703 135.209L0.0784912 67.7095L259.391 0.209473H324.078V67.7095V135.209V202.709L324.078 270.209V337.709V405.209V472.709V540.209V607.709V675.209V742.709L324.078 810.209V877.709V945.209V1012.71V1080.21H97.391Z" fill="url(#paint2_linear_106_607)"/>
<path fill-rule="evenodd" clip-rule="evenodd" d="M97.391 1080.21L32.7035 1012.71L259.391 945.209L291.453 877.709L226.766 810.209L324.078 742.709L226.766 675.209L226.766 607.709L32.7035 540.209L32.7035 472.709L194.703 405.209L226.766 337.709L162.078 270.209L129.453 202.709L194.703 135.209L0.0784912 67.7095L259.391 0.209473H324.078V67.7095V135.209V202.709L324.078 270.209V337.709V405.209V472.709V540.209V607.709V675.209V742.709L324.078 810.209V877.709V945.209V1012.71V1080.21H97.391Z" fill="url(#paint3_linear_106_607)"/>
<path fill-rule="evenodd" clip-rule="evenodd" d="M97.391 1080.21L32.7035 1012.71L259.391 945.209L291.453 877.709L226.766 810.209L324.078 742.709L226.766 675.209L226.766 607.709L32.7035 540.209L32.7035 472.709L194.703 405.209L226.766 337.709L162.078 270.209L129.453 202.709L194.703 135.209L0.0784912 67.7095L259.391 0.209473H324.078V67.7095V135.209V202.709L324.078 270.209V337.709V405.209V472.709V540.209V607.709V675.209V742.709L324.078 810.209V877.709V945.209V1012.71V1080.21H97.391Z" fill="url(#paint4_linear_106_607)"/>
<path fill-rule="evenodd" clip-rule="evenodd" d="M97.391 1080.21L32.7035 1012.71L259.391 945.209L291.453 877.709L226.766 810.209L324.078 742.709L226.766 675.209L226.766 607.709L32.7035 540.209L32.7035 472.709L194.703 405.209L226.766 337.709L162.078 270.209L129.453 202.709L194.703 135.209L0.0784912 67.7095L259.391 0.209473H324.078V67.7095V135.209V202.709L324.078 270.209V337.709V405.209V472.709V540.209V607.709V675.209V742.709L324.078 810.209V877.709V945.209V1012.71V1080.21H97.391Z" fill="url(#paint5_linear_106_607)"/>
<defs>
<linearGradient id="paint0_linear_106_607" x1="324.078" y1="564.209" x2="324.078" y2="0.209458" gradientUnits="userSpaceOnUse">
<stop stop-color="#007EB5"/>
<stop offset="1" stop-color="#2B6880"/>
</linearGradient>
<linearGradient id="paint1_linear_106_607" x1="324.078" y1="564.209" x2="324.078" y2="0.209458" gradientUnits="userSpaceOnUse">
<stop stop-color="#007EB5"/>
<stop offset="1" stop-color="#2B6880"/>
</linearGradient>
<linearGradient id="paint2_linear_106_607" x1="324.078" y1="564.209" x2="324.078" y2="0.209458" gradientUnits="userSpaceOnUse">
<stop stop-color="#007EB5"/>
<stop offset="1" stop-color="#2B6880"/>
</linearGradient>
<linearGradient id="paint3_linear_106_607" x1="324.078" y1="564.209" x2="324.078" y2="0.209458" gradientUnits="userSpaceOnUse">
<stop stop-color="#007EB5"/>
<stop offset="1" stop-color="#2B6880"/>
</linearGradient>
<linearGradient id="paint4_linear_106_607" x1="324.078" y1="564.209" x2="324.078" y2="0.209458" gradientUnits="userSpaceOnUse">
<stop stop-color="#007EB5"/>
<stop offset="1" stop-color="#2B6880"/>
</linearGradient>
<linearGradient id="paint5_linear_106_607" x1="324.078" y1="564.209" x2="324.078" y2="0.209458" gradientUnits="userSpaceOnUse">
<stop stop-color="#007EB5"/>
<stop offset="1" stop-color="#2B6880"/>
</linearGradient>
</defs>
</svg>
