<svg width="231" height="1080" viewBox="0 0 231 1080" fill="none" xmlns="http://www.w3.org/2000/svg">
<path fill-rule="evenodd" clip-rule="evenodd" d="M157.5 0L162.75 13.5C168 27.9 178.5 55.8 194.25 82.8C210 110.7 231 138.6 231 166.5C231 193.5 210 221.4 204.75 249.3C199.5 277.2 210 304.2 194.25 332.1C178.5 360 136.5 387.9 120.75 415.8C105 442.8 115.5 470.7 136.5 498.6C157.5 526.5 189 553.5 189 581.4C189 609.3 157.5 637.2 157.5 664.2C157.5 692.1 189 720 194.25 747.9C199.5 775.8 178.5 802.8 168 830.7C157.5 858.6 157.5 886.5 147 913.5C136.5 941.4 115.5 969.3 94.5 997.2C73.5 1024.2 52.5 1052.1 42 1066.5L31.5 1080H0V1066.5C0 1052.1 0 1024.2 0 997.2C0 969.3 0 941.4 0 913.5C0 886.5 0 858.6 0 830.7C0 802.8 0 775.8 0 747.9C0 720 0 692.1 0 664.2C0 637.2 0 609.3 0 581.4C0 553.5 0 526.5 0 498.6C0 470.7 0 442.8 0 415.8C0 387.9 0 360 0 332.1C0 304.2 0 277.2 0 249.3C0 221.4 0 193.5 0 166.5C0 138.6 0 110.7 0 82.8C0 55.8 0 27.9 0 13.5V0L157.5 0Z" fill="#0099FF"/>
</svg>
