<svg width="324" height="1080" viewBox="0 0 324 1080" fill="none" xmlns="http://www.w3.org/2000/svg">
<path fill-rule="evenodd" clip-rule="evenodd" d="M226.688 -4.25366e-06L291.375 67.5L64.6875 135L32.625 202.5L97.3125 270L-1.47526e-05 337.5L97.3125 405L97.3125 472.5L291.375 540L291.375 607.5L129.375 675L97.3125 742.5L162 810L194.625 877.5L129.375 945L324 1012.5L64.6875 1080L-4.72083e-05 1080L-4.42578e-05 1012.5L-4.13073e-05 945L-3.83567e-05 877.5L-3.54062e-05 810L-3.24557e-05 742.5L-2.95052e-05 675L-2.65547e-05 607.5L-2.36041e-05 540L-2.06536e-05 472.5L-1.77031e-05 405L-1.47526e-05 337.5L-1.18021e-05 270L-8.85156e-06 202.5L-5.90104e-06 135L-2.95052e-06 67.5L0 -1.41625e-05L226.688 -4.25366e-06Z" fill="url(#paint0_linear_107_604)"/>
<path fill-rule="evenodd" clip-rule="evenodd" d="M226.688 -4.25366e-06L291.375 67.5L64.6875 135L32.625 202.5L97.3125 270L-1.47526e-05 337.5L97.3125 405L97.3125 472.5L291.375 540L291.375 607.5L129.375 675L97.3125 742.5L162 810L194.625 877.5L129.375 945L324 1012.5L64.6875 1080L-4.72083e-05 1080L-4.42578e-05 1012.5L-4.13073e-05 945L-3.83567e-05 877.5L-3.54062e-05 810L-3.24557e-05 742.5L-2.95052e-05 675L-2.65547e-05 607.5L-2.36041e-05 540L-2.06536e-05 472.5L-1.77031e-05 405L-1.47526e-05 337.5L-1.18021e-05 270L-8.85156e-06 202.5L-5.90104e-06 135L-2.95052e-06 67.5L0 -1.41625e-05L226.688 -4.25366e-06Z" fill="url(#paint1_linear_107_604)"/>
<path fill-rule="evenodd" clip-rule="evenodd" d="M226.688 -4.25366e-06L291.375 67.5L64.6875 135L32.625 202.5L97.3125 270L-1.47526e-05 337.5L97.3125 405L97.3125 472.5L291.375 540L291.375 607.5L129.375 675L97.3125 742.5L162 810L194.625 877.5L129.375 945L324 1012.5L64.6875 1080L-4.72083e-05 1080L-4.42578e-05 1012.5L-4.13073e-05 945L-3.83567e-05 877.5L-3.54062e-05 810L-3.24557e-05 742.5L-2.95052e-05 675L-2.65547e-05 607.5L-2.36041e-05 540L-2.06536e-05 472.5L-1.77031e-05 405L-1.47526e-05 337.5L-1.18021e-05 270L-8.85156e-06 202.5L-5.90104e-06 135L-2.95052e-06 67.5L0 -1.41625e-05L226.688 -4.25366e-06Z" fill="url(#paint2_linear_107_604)"/>
<path fill-rule="evenodd" clip-rule="evenodd" d="M226.688 -4.25366e-06L291.375 67.5L64.6875 135L32.625 202.5L97.3125 270L-1.47526e-05 337.5L97.3125 405L97.3125 472.5L291.375 540L291.375 607.5L129.375 675L97.3125 742.5L162 810L194.625 877.5L129.375 945L324 1012.5L64.6875 1080L-4.72083e-05 1080L-4.42578e-05 1012.5L-4.13073e-05 945L-3.83567e-05 877.5L-3.54062e-05 810L-3.24557e-05 742.5L-2.95052e-05 675L-2.65547e-05 607.5L-2.36041e-05 540L-2.06536e-05 472.5L-1.77031e-05 405L-1.47526e-05 337.5L-1.18021e-05 270L-8.85156e-06 202.5L-5.90104e-06 135L-2.95052e-06 67.5L0 -1.41625e-05L226.688 -4.25366e-06Z" fill="url(#paint3_linear_107_604)"/>
<path fill-rule="evenodd" clip-rule="evenodd" d="M226.688 -4.25366e-06L291.375 67.5L64.6875 135L32.625 202.5L97.3125 270L-1.47526e-05 337.5L97.3125 405L97.3125 472.5L291.375 540L291.375 607.5L129.375 675L97.3125 742.5L162 810L194.625 877.5L129.375 945L324 1012.5L64.6875 1080L-4.72083e-05 1080L-4.42578e-05 1012.5L-4.13073e-05 945L-3.83567e-05 877.5L-3.54062e-05 810L-3.24557e-05 742.5L-2.95052e-05 675L-2.65547e-05 607.5L-2.36041e-05 540L-2.06536e-05 472.5L-1.77031e-05 405L-1.47526e-05 337.5L-1.18021e-05 270L-8.85156e-06 202.5L-5.90104e-06 135L-2.95052e-06 67.5L0 -1.41625e-05L226.688 -4.25366e-06Z" fill="url(#paint4_linear_107_604)"/>
<path fill-rule="evenodd" clip-rule="evenodd" d="M226.688 -4.25366e-06L291.375 67.5L64.6875 135L32.625 202.5L97.3125 270L-1.47526e-05 337.5L97.3125 405L97.3125 472.5L291.375 540L291.375 607.5L129.375 675L97.3125 742.5L162 810L194.625 877.5L129.375 945L324 1012.5L64.6875 1080L-4.72083e-05 1080L-4.42578e-05 1012.5L-4.13073e-05 945L-3.83567e-05 877.5L-3.54062e-05 810L-3.24557e-05 742.5L-2.95052e-05 675L-2.65547e-05 607.5L-2.36041e-05 540L-2.06536e-05 472.5L-1.77031e-05 405L-1.47526e-05 337.5L-1.18021e-05 270L-8.85156e-06 202.5L-5.90104e-06 135L-2.95052e-06 67.5L0 -1.41625e-05L226.688 -4.25366e-06Z" fill="url(#paint5_linear_107_604)"/>
<defs>
<linearGradient id="paint0_linear_107_604" x1="2.80142e-05" y1="516" x2="2.80142e-05" y2="1080" gradientUnits="userSpaceOnUse">
<stop stop-color="#007EB5"/>
<stop offset="1" stop-color="#2B6880"/>
</linearGradient>
<linearGradient id="paint1_linear_107_604" x1="2.80142e-05" y1="516" x2="2.80142e-05" y2="1080" gradientUnits="userSpaceOnUse">
<stop stop-color="#007EB5"/>
<stop offset="1" stop-color="#2B6880"/>
</linearGradient>
<linearGradient id="paint2_linear_107_604" x1="2.80142e-05" y1="516" x2="2.80142e-05" y2="1080" gradientUnits="userSpaceOnUse">
<stop stop-color="#007EB5"/>
<stop offset="1" stop-color="#2B6880"/>
</linearGradient>
<linearGradient id="paint3_linear_107_604" x1="2.80142e-05" y1="516" x2="2.80142e-05" y2="1080" gradientUnits="userSpaceOnUse">
<stop stop-color="#007EB5"/>
<stop offset="1" stop-color="#2B6880"/>
</linearGradient>
<linearGradient id="paint4_linear_107_604" x1="2.80142e-05" y1="516" x2="2.80142e-05" y2="1080" gradientUnits="userSpaceOnUse">
<stop stop-color="#007EB5"/>
<stop offset="1" stop-color="#2B6880"/>
</linearGradient>
<linearGradient id="paint5_linear_107_604" x1="2.80142e-05" y1="516" x2="2.80142e-05" y2="1080" gradientUnits="userSpaceOnUse">
<stop stop-color="#007EB5"/>
<stop offset="1" stop-color="#2B6880"/>
</linearGradient>
</defs>
</svg>
